<?xml version="1.0" encoding="UTF-8"?>
<svg id="_레이어_2" data-name="레이어 2" xmlns="http://www.w3.org/2000/svg" viewBox="0 0 21.2 16">
  <defs>
    <style>
      .cls-1 {
        fill: #9173ff;
      }
    </style>
  </defs>
  <g id="_레이어_7" data-name="레이어 7">
    <path class="cls-1" d="M19.02,8.58s-.07-.05-.06-.1c.26-2.27-.35-4.46-1.67-5.98-1.44-1.64-3.88-2.5-6.69-2.5S5.35.87,3.91,2.5c-1.33,1.51-1.94,3.7-1.67,5.98,0,.05-.02.09-.06.1-.49.13-3.28,1.05-1.7,4.68,1.08,2.49,3.54,3.24,4.6,2.43.46-.35.65-1,.07-2.55-.19-.55-.39-1.13-.58-1.71,1.47.36,2.21-.86,2.76-2.42.05-.15.2-.23.26.07.35,1.55.5,4.66,2.43,4.66,2.11,0,2.12-3.39,2.76-5.4.15-.48.49-.35.59-.02.32,1.13.42,3.35,1.52,4.22.44.35.84.49,1.21.5-.01.03-.02.06-.03.09-.58,1.55-.4,2.2.07,2.55,1.05.8,3.51.05,4.6-2.43,1.58-3.62-1.2-4.55-1.7-4.68ZM16.65,10.68c-1.48.32-.99-6.02-3.62-5.84s-2.03,7.88-3.27,6.75c-.61-.56-.24-6.28-2.75-5.21-1.02.44-1.05,2.47-2.06,3.31-.45.37-.92-.32-1.03-.92,0-.04-.02-.08-.02-.12-.22-1.96.15-3.86,1.26-5.13,1.13-1.29,3.1-1.95,5.45-1.95s4.32.66,5.45,1.95c1.11,1.27,1.48,3.17,1.26,5.13-.08.65-.22,1.72-.41,1.9-.06.06-.17.11-.25.13Z"/>
  </g>
</svg>