<svg width="18" height="17" viewBox="0 0 18 17" fill="none" xmlns="http://www.w3.org/2000/svg">
<path d="M7.20653 2.63397C7.98776 1.05102 8.37837 0.259551 9 0.259551C9.62163 0.259551 10.0122 1.05102 10.7935 2.63397L11.4736 4.01203C11.7015 4.4739 11.8155 4.70483 12.0152 4.84992C12.2149 4.99502 12.4698 5.03205 12.9795 5.10611L14.5002 5.3271C16.2471 5.58093 17.1206 5.70785 17.3127 6.29905C17.5048 6.89025 16.8727 7.50633 15.6087 8.73848L14.5082 9.81115C14.1394 10.1707 13.955 10.3504 13.8787 10.5852C13.8024 10.82 13.846 11.0738 13.933 11.5814L14.1928 13.096C14.4912 14.8359 14.6404 15.7058 14.1375 16.0712C13.6346 16.4366 12.8534 16.0258 11.2909 15.2044L9.93068 14.4893C9.47479 14.2496 9.24685 14.1298 9 14.1298C8.75315 14.1298 8.52521 14.2496 8.06932 14.4893L6.70909 15.2044C5.14663 16.0258 4.3654 16.4366 3.86249 16.0712C3.35959 15.7058 3.50879 14.8359 3.80719 13.096L4.06697 11.5814C4.15404 11.0738 4.19757 10.82 4.12129 10.5852C4.04501 10.3504 3.8606 10.1707 3.49178 9.81115L2.39133 8.73848C1.12728 7.50633 0.495247 6.89025 0.68734 6.29905C0.879433 5.70785 1.75288 5.58093 3.49976 5.3271L5.02054 5.10611C5.53024 5.03205 5.78509 4.99502 5.98479 4.84992C6.1845 4.70483 6.29847 4.4739 6.52641 4.01203L7.20653 2.63397Z" fill="#BFC0D1" style="fill:#BFC0D1;fill:color(display-p3 0.7490 0.7529 0.8196);fill-opacity:1;"/>
</svg>
