<svg width="32" height="32" viewBox="0 0 32 32" fill="none" xmlns="http://www.w3.org/2000/svg">
<path fill-rule="evenodd" clip-rule="evenodd" d="M23.778 23.7781C23.5136 24.0425 23.3814 24.1746 23.2261 24.2162C23.1244 24.2435 23.0173 24.2435 22.9156 24.2162C22.7603 24.1746 22.6281 24.0425 22.3637 23.7781L8.2216 9.63597C7.95725 9.37162 7.82508 9.23944 7.78347 9.08415C7.75621 8.98242 7.75621 8.8753 7.78347 8.77357C7.82508 8.61828 7.95725 8.4861 8.2216 8.22176C8.48595 7.95741 8.61813 7.82523 8.77342 7.78362C8.87515 7.75636 8.98227 7.75636 9.084 7.78362C9.23929 7.82523 9.37147 7.95741 9.63582 8.22176L23.778 22.3639C24.0423 22.6282 24.1745 22.7604 24.2161 22.9157C24.2433 23.0174 24.2433 23.1246 24.2161 23.2263C24.1745 23.3816 24.0423 23.5138 23.778 23.7781Z" fill="white" style="fill:white;fill-opacity:1;"/>
<path fill-rule="evenodd" clip-rule="evenodd" d="M8.22189 23.7781C7.95755 23.5137 7.82537 23.3815 7.78376 23.2263C7.7565 23.1245 7.7565 23.0174 7.78376 22.9157C7.82537 22.7604 7.95755 22.6282 8.22189 22.3639L22.364 8.22173C22.6284 7.95738 22.7606 7.8252 22.9158 7.78359C23.0176 7.75633 23.1247 7.75633 23.2264 7.78359C23.3817 7.8252 23.5139 7.95738 23.7782 8.22173C24.0426 8.48608 24.1748 8.61825 24.2164 8.77354C24.2436 8.87527 24.2436 8.98239 24.2164 9.08412C24.1748 9.23942 24.0426 9.37159 23.7782 9.63594L9.63611 23.7781C9.37176 24.0424 9.23958 24.1746 9.08429 24.2162C8.98256 24.2435 8.87544 24.2435 8.77371 24.2162C8.61842 24.1746 8.48624 24.0424 8.22189 23.7781Z" fill="white" style="fill:white;fill-opacity:1;"/>
</svg>
