<svg width="44" height="44" viewBox="0 0 44 44" fill="none" xmlns="http://www.w3.org/2000/svg">
<circle cx="22" cy="22" r="22" fill="#26262B" style="fill:#26262B;fill:color(display-p3 0.1490 0.1490 0.1686);fill-opacity:1;"/>
<path fill-rule="evenodd" clip-rule="evenodd" d="M32.9999 21C33.2643 21.2643 33.3964 21.3965 33.4381 21.5518C33.4653 21.6535 33.4653 21.7607 33.4381 21.8624C33.3964 22.0177 33.2643 22.1499 32.9999 22.4142L22.707 32.7071C22.5195 32.8946 22.2651 33 21.9999 33C21.7347 33 21.4804 32.8946 21.2928 32.7071L10.9999 22.4142C10.7356 22.1499 10.6034 22.0177 10.5618 21.8624C10.5345 21.7607 10.5345 21.6535 10.5618 21.5518C10.6034 21.3965 10.7356 21.2643 10.9999 21C11.2643 20.7356 11.3964 20.6035 11.5517 20.5619C11.6535 20.5346 11.7606 20.5346 11.8623 20.5619C12.0176 20.6035 12.1498 20.7356 12.4141 21L20.3171 28.9029C20.6077 29.1936 20.753 29.3389 20.8765 29.2877C20.9999 29.2366 20.9999 29.0311 20.9999 28.6201L20.9999 12C20.9999 11.6262 20.9999 11.4392 21.0803 11.3C21.133 11.2088 21.2087 11.133 21.2999 11.0804C21.4392 11 21.6261 11 21.9999 11C22.3738 11 22.5607 11 22.6999 11.0804C22.7911 11.133 22.8669 11.2088 22.9195 11.3C22.9999 11.4392 22.9999 11.6262 22.9999 12L22.9999 28.6201C22.9999 29.0311 22.9999 29.2366 23.1234 29.2877C23.2469 29.3389 23.3922 29.1936 23.6828 28.9029L31.5857 21C31.8501 20.7356 31.9822 20.6035 32.1375 20.5619C32.2393 20.5346 32.3464 20.5346 32.4481 20.5619C32.6034 20.6035 32.7356 20.7356 32.9999 21Z" fill="#303036" style="fill:#303036;fill:color(display-p3 0.1882 0.1882 0.2118);fill-opacity:1;"/>
</svg>
