<svg width="16" height="14" viewBox="0 0 16 14" fill="none" xmlns="http://www.w3.org/2000/svg">
<path clip-rule="evenodd" d="M4.57107 0.143802C4.57107 0.14353 4.57129 0.143311 4.57156 0.143311H6.8572H13.7141H15.9993C15.9995 0.143311 15.9998 0.143547 15.9998 0.143838L15.9998 10.4285C15.9998 10.4286 15.9997 10.4287 15.9996 10.4287C15.9996 10.4287 15.9995 10.4287 15.9995 10.4288C15.9993 12.3221 14.4644 13.8569 12.571 13.8569C10.6776 13.8569 9.14258 12.3219 9.14258 10.4284C9.14258 8.53496 10.6776 6.99999 12.571 6.99999C12.9922 6.99999 13.2027 6.99999 13.2875 6.97439C13.5239 6.90303 13.6172 6.80975 13.6885 6.57338C13.7141 6.48857 13.7141 6.33569 13.7141 6.02991V4.53177C13.7141 4.19573 13.7141 4.02772 13.6487 3.89937C13.5912 3.78647 13.4994 3.69469 13.3865 3.63716C13.2582 3.57177 13.0902 3.57177 12.7541 3.57177H7.8172C7.48117 3.57177 7.31315 3.57177 7.1848 3.63716C7.07191 3.69469 6.98012 3.78647 6.92259 3.89937C6.8572 4.02772 6.8572 4.19573 6.8572 4.53177L6.8572 10.4285C6.8572 10.4286 6.85713 10.4287 6.85705 10.4287C6.85697 10.4287 6.85691 10.4287 6.85691 10.4288C6.85671 12.3221 5.32181 13.8569 3.42846 13.8569C1.53497 13.8569 0 12.3219 0 10.4284C0 8.53496 1.53497 6.99999 3.42846 6.99999C3.84958 6.99999 4.06015 6.99999 4.14495 6.97439C4.38133 6.90303 4.47461 6.80975 4.54596 6.57338C4.57156 6.48857 4.57156 6.33569 4.57156 6.02991V3.57201C4.57156 3.57188 4.57145 3.57177 4.57132 3.57177C4.57118 3.57177 4.57107 3.57166 4.57107 3.57152V0.143802Z" fill="#000"/>
</svg>
