<svg width="16" height="14" viewBox="0 0 16 14" fill="none" xmlns="http://www.w3.org/2000/svg">
<path d="M7.99219 13.3242C7.6582 13.3242 7.37109 13.2012 7.13086 12.9551L1.82227 7.59375C1.40625 7.16602 1.09277 6.68262 0.881836 6.14355C0.676758 5.59863 0.574219 5.0332 0.574219 4.44727C0.574219 3.65039 0.764648 2.91211 1.14551 2.23242C1.52637 1.54688 2.04492 1.00488 2.70117 0.606445C3.36328 0.202148 4.08984 0 4.88086 0C5.46094 0.00585938 6.02344 0.125977 6.56836 0.360352C7.11328 0.594727 7.58789 0.931641 7.99219 1.37109C8.39648 0.931641 8.87109 0.594727 9.41602 0.360352C9.96094 0.125977 10.5234 0.00585938 11.1035 0C11.9004 0 12.627 0.202148 13.2832 0.606445C13.9453 1.01074 14.4668 1.55566 14.8477 2.24121C15.2344 2.9209 15.4277 3.66211 15.4277 4.46484C15.4219 5.04492 15.3135 5.60449 15.1025 6.14355C14.8916 6.68262 14.5781 7.16602 14.1621 7.59375L8.85352 12.9551C8.74805 13.0781 8.61914 13.1689 8.4668 13.2275C8.31445 13.292 8.15625 13.3242 7.99219 13.3242Z" fill="#70707D" style="fill:#70707D;fill:color(display-p3 0.4385 0.4385 0.4902);fill-opacity:1;"/>
</svg>
