<svg width="20" height="20" viewBox="0 0 20 20" fill="none" xmlns="http://www.w3.org/2000/svg">
<circle cx="10" cy="10" r="9.5" fill="#202024" stroke="#303036" style="fill:#202024;fill:color(display-p3 0.1255 0.1255 0.1412);fill-opacity:1;stroke:#303036;stroke:color(display-p3 0.1882 0.1882 0.2118);stroke-opacity:1;"/>
<path d="M9.4 12C9.21144 12 9.11716 12 9.05858 11.9414C9 11.8828 9 11.7886 9 11.6V5.4C9 5.21144 9 5.11716 9.05858 5.05858C9.11716 5 9.21144 5 9.4 5H10.6C10.7886 5 10.8828 5 10.9414 5.05858C11 5.11716 11 5.21144 11 5.4V11.6C11 11.7886 11 11.8828 10.9414 11.9414C10.8828 12 10.7886 12 10.6 12H9.4ZM9.96875 15.4375C9.6875 15.4375 9.45573 15.3464 9.27344 15.1641C9.09115 14.9818 9 14.75 9 14.4688C9 14.1875 9.09115 13.9557 9.27344 13.7734C9.45573 13.5911 9.6875 13.5 9.96875 13.5C10.25 13.5 10.4818 13.5911 10.6641 13.7734C10.8464 13.9557 10.9375 14.1875 10.9375 14.4688C10.9375 14.75 10.8464 14.9818 10.6641 15.1641C10.4818 15.3464 10.25 15.4375 9.96875 15.4375Z" fill="#70707D" style="fill:#70707D;fill:color(display-p3 0.4385 0.4385 0.4902);fill-opacity:1;"/>
</svg>
