<svg width="20" height="20" viewBox="0 0 20 20" fill="none" xmlns="http://www.w3.org/2000/svg">
<path d="M8.20653 3.63397C8.98776 2.05102 9.37837 1.25955 10 1.25955C10.6216 1.25955 11.0122 2.05102 11.7935 3.63397L12.4736 5.01203C12.7015 5.4739 12.8155 5.70483 13.0152 5.84992C13.2149 5.99502 13.4698 6.03205 13.9795 6.10611L15.5002 6.3271C17.2471 6.58093 18.1206 6.70785 18.3127 7.29905C18.5048 7.89025 17.8727 8.50633 16.6087 9.73848L15.5082 10.8112C15.1394 11.1707 14.955 11.3504 14.8787 11.5852C14.8024 11.82 14.846 12.0738 14.933 12.5814L15.1928 14.096C15.4912 15.8359 15.6404 16.7058 15.1375 17.0712C14.6346 17.4366 13.8534 17.0258 12.2909 16.2044L10.9307 15.4893C10.4748 15.2496 10.2468 15.1298 10 15.1298C9.75315 15.1298 9.52521 15.2496 9.06932 15.4893L7.70909 16.2044C6.14663 17.0258 5.3654 17.4366 4.86249 17.0712C4.35959 16.7058 4.50879 15.8359 4.80719 14.096L5.06697 12.5814C5.15404 12.0738 5.19757 11.82 5.12129 11.5852C5.04501 11.3504 4.8606 11.1707 4.49178 10.8112L3.39133 9.73848C2.12728 8.50633 1.49525 7.89025 1.68734 7.29905C1.87943 6.70785 2.75288 6.58093 4.49976 6.3271L6.02054 6.10611C6.53024 6.03205 6.78509 5.99502 6.98479 5.84992C7.1845 5.70483 7.29847 5.4739 7.52641 5.01203L8.20653 3.63397Z" fill="#9173FF" style="fill:#9173FF;fill:color(display-p3 0.5692 0.4500 1.0000);fill-opacity:1;"/>
</svg>
