<svg width="14" height="12" viewBox="0 0 14 12" fill="none" xmlns="http://www.w3.org/2000/svg">
<mask id="path-1-outside-1_1216_2807" maskUnits="userSpaceOnUse" x="-9.61651e-07" y="-8.74228e-08" width="14" height="12" fill="black">
<rect fill="white" x="-9.61651e-07" y="-8.74228e-08" width="14" height="12"/>
<path d="M12.6703 0.999999C12.8204 0.999999 12.917 1.15927 12.8476 1.29242L7.84553 10.8924C7.81108 10.9585 7.74272 11 7.66816 11L6.31231 11C6.23765 11 6.1692 10.9584 6.1348 10.8921L1.15164 1.29214C1.08254 1.15901 1.17915 1 1.32916 1L2.71049 1C2.78699 1 2.85678 1.04363 2.89029 1.1124L6.34868 8.2106C6.38816 8.28498 6.45395 8.41981 6.54605 8.61506C6.63816 8.81032 6.73026 9.01023 6.82237 9.21478C6.82713 9.22769 6.83185 9.24041 6.83652 9.25294C6.89887 9.42033 7.12464 9.414 7.19021 9.24784C7.20549 9.20912 7.22103 9.1702 7.23684 9.1311C7.30263 8.94514 7.375 8.77313 7.45395 8.61506C7.51974 8.457 7.57895 8.32218 7.63158 8.2106L11.1488 1.11121C11.1826 1.04309 11.252 0.999999 11.3281 0.999999L12.6703 0.999999Z"/>
</mask>
<path d="M12.6703 0.999999C12.8204 0.999999 12.917 1.15927 12.8476 1.29242L7.84553 10.8924C7.81108 10.9585 7.74272 11 7.66816 11L6.31231 11C6.23765 11 6.1692 10.9584 6.1348 10.8921L1.15164 1.29214C1.08254 1.15901 1.17915 1 1.32916 1L2.71049 1C2.78699 1 2.85678 1.04363 2.89029 1.1124L6.34868 8.2106C6.38816 8.28498 6.45395 8.41981 6.54605 8.61506C6.63816 8.81032 6.73026 9.01023 6.82237 9.21478C6.82713 9.22769 6.83185 9.24041 6.83652 9.25294C6.89887 9.42033 7.12464 9.414 7.19021 9.24784C7.20549 9.20912 7.22103 9.1702 7.23684 9.1311C7.30263 8.94514 7.375 8.77313 7.45395 8.61506C7.51974 8.457 7.57895 8.32218 7.63158 8.2106L11.1488 1.11121C11.1826 1.04309 11.252 0.999999 11.3281 0.999999L12.6703 0.999999Z" fill="white" style="fill:white;fill-opacity:1;"/>
<path d="M6.34868 8.2106L5.98888 8.3859L5.99535 8.3981L6.34868 8.2106ZM6.54605 8.61506L6.90782 8.44441L6.90782 8.44441L6.54605 8.61506ZM6.82237 9.21478L7.19761 9.07626L7.1928 9.06322L7.1871 9.05056L6.82237 9.21478ZM7.23684 9.1311L7.60768 9.28104L7.61099 9.27285L7.61394 9.26451L7.23684 9.1311ZM7.45395 8.61506L7.8118 8.79379L7.81795 8.78148L7.82324 8.76877L7.45395 8.61506ZM7.63158 8.2106L7.27309 8.03299L7.26981 8.03995L7.63158 8.2106ZM6.83652 9.25294L7.21136 9.11332L6.83652 9.25294ZM7.19021 9.24784L6.81813 9.10102L7.19021 9.24784ZM2.89029 1.1124L2.5307 1.2876L2.89029 1.1124ZM6.1348 10.8921L6.48982 10.7079L6.1348 10.8921ZM11.1488 1.11121L10.7904 0.933637L11.1488 1.11121ZM7.84553 10.8924L8.20026 11.0773L7.84553 10.8924ZM12.8476 1.29242L12.4929 1.10758L12.8476 1.29242ZM12.4929 1.10758L7.4908 10.7076L8.20026 11.0773L13.2024 1.47725L12.4929 1.10758ZM7.66816 10.6L6.31231 10.6L6.31231 11.4L7.66816 11.4L7.66816 10.6ZM6.48982 10.7079L1.50667 1.10786L0.796624 1.47643L5.77978 11.0764L6.48982 10.7079ZM1.32916 1.4L2.71049 1.4L2.71049 0.6L1.32916 0.6L1.32916 1.4ZM2.5307 1.2876L5.98909 8.3858L6.70827 8.0354L3.24988 0.9372L2.5307 1.2876ZM5.99535 8.3981C6.02986 8.46313 6.09199 8.59006 6.18428 8.78571L6.90782 8.44441C6.81591 8.24955 6.74645 8.10684 6.70202 8.0231L5.99535 8.3981ZM6.18428 8.78571C6.27534 8.97876 6.36646 9.17652 6.45764 9.37901L7.1871 9.05056C7.09406 8.84393 7.00097 8.64188 6.90782 8.44441L6.18428 8.78571ZM6.44712 9.35331C6.45202 9.36657 6.45687 9.37966 6.46168 9.39256L7.21136 9.11332C7.20683 9.10116 7.20225 9.08881 7.19761 9.07626L6.44712 9.35331ZM7.56229 9.39466C7.57715 9.35699 7.59228 9.31911 7.60768 9.28104L6.86601 8.98117C6.84978 9.02129 6.83382 9.06124 6.81813 9.10102L7.56229 9.39466ZM7.61394 9.26451C7.67487 9.09228 7.74098 8.93559 7.8118 8.79379L7.0961 8.43633C7.00902 8.61067 6.93039 8.798 6.85975 8.99769L7.61394 9.26451ZM7.82324 8.76877C7.88749 8.6144 7.94414 8.48557 7.99335 8.38125L7.26981 8.03995C7.21375 8.15878 7.15199 8.29959 7.08466 8.46136L7.82324 8.76877ZM7.99 8.38817L11.5073 1.28879L10.7904 0.933637L7.27316 8.03303L7.99 8.38817ZM11.3281 1.4L12.6703 1.4L12.6703 0.599999L11.3281 0.6L11.3281 1.4ZM6.46168 9.39256C6.55573 9.64507 6.78811 9.77997 7.02004 9.77539C7.24752 9.77091 7.468 9.63362 7.56229 9.39466L6.81813 9.10102C6.84685 9.02822 6.92166 8.97718 7.00427 8.97555C7.09134 8.97383 7.17965 9.0282 7.21136 9.11332L6.46168 9.39256ZM2.71049 1.4C2.634 1.4 2.5642 1.35637 2.5307 1.2876L3.24988 0.9372C3.14936 0.730898 2.93998 0.6 2.71049 0.6L2.71049 1.4ZM1.50667 1.10786C1.57577 1.24099 1.47916 1.4 1.32916 1.4L1.32916 0.6C0.879148 0.6 0.5893 1.07702 0.796624 1.47643L1.50667 1.10786ZM6.31231 10.6C6.38698 10.6 6.45542 10.6416 6.48982 10.7079L5.77978 11.0764C5.88298 11.2752 6.08832 11.4 6.31231 11.4L6.31231 10.6ZM11.5073 1.28879C11.4735 1.3569 11.4041 1.4 11.3281 1.4L11.3281 0.6C11.1 0.6 10.8917 0.729286 10.7904 0.933637L11.5073 1.28879ZM7.4908 10.7076C7.52525 10.6415 7.59361 10.6 7.66816 10.6L7.66816 11.4C7.89182 11.4 8.09692 11.2756 8.20026 11.0773L7.4908 10.7076ZM13.2024 1.47725C13.4105 1.0778 13.1207 0.599999 12.6703 0.599999L12.6703 1.4C12.5201 1.4 12.4235 1.24073 12.4929 1.10758L13.2024 1.47725Z" fill="white" style="fill:white;fill-opacity:1;" mask="url(#path-1-outside-1_1216_2807)"/>
</svg>
