<svg width="28" height="22" viewBox="0 0 28 22" fill="none" xmlns="http://www.w3.org/2000/svg">
<path d="M25.0964 11.7596C25.0964 11.7596 25.004 11.694 25.0172 11.6284C25.3603 8.64943 24.5554 5.77547 22.8136 3.78077C20.9135 1.62858 17.6939 0.5 13.9861 0.5C10.2782 0.5 7.05862 1.64171 5.15852 3.78077C3.40356 5.76235 2.59866 8.6363 2.95492 11.6284C2.95492 11.694 2.92853 11.7465 2.87575 11.7596C2.22919 11.9302 -1.45226 13.1375 0.632577 17.9012C2.05765 21.1688 5.30366 22.1531 6.70235 21.0901C7.30933 20.6308 7.56003 19.7778 6.79472 17.7437C6.54401 17.0219 6.2801 16.2608 6.0294 15.4997C7.96908 15.9721 8.94553 14.3711 9.67126 12.3239C9.73724 12.127 9.93516 12.0221 10.0143 12.4157C10.4762 14.4498 10.6741 18.5311 13.2208 18.5311C16.0049 18.5311 16.0181 14.0824 16.8626 11.4446C17.0605 10.8147 17.5092 10.9853 17.6411 11.4184C18.0634 12.9013 18.1953 15.8146 19.6468 16.9563C20.2274 17.4156 20.7552 17.5994 21.2434 17.6125C21.2302 17.6519 21.217 17.6912 21.2038 17.7306C20.4385 19.7647 20.676 20.6177 21.2962 21.077C22.6817 22.1268 25.9277 21.1426 27.366 17.8881C29.4508 13.1375 25.7825 11.9171 25.1228 11.7465L25.0964 11.7596ZM21.9691 14.5154C20.0163 14.9354 20.6628 6.61535 17.1925 6.85157C13.7222 7.08778 14.5139 17.1925 12.8777 15.7096C12.0728 14.9747 12.561 7.46835 9.24901 8.87252C7.90311 9.44993 7.86352 12.1139 6.53081 13.2163C5.93703 13.7018 5.31686 12.7963 5.17171 12.0089C5.17171 11.9564 5.14532 11.9039 5.14532 11.8515C4.85503 9.27933 5.34325 6.78595 6.80791 5.11932C8.29896 3.42645 10.8984 2.56032 13.9993 2.56032C17.1001 2.56032 19.6996 3.42645 21.1906 5.11932C22.6553 6.78595 23.1435 9.27933 22.8532 11.8515C22.7477 12.7045 22.5629 14.1086 22.3122 14.3448C22.233 14.4236 22.0879 14.4892 21.9823 14.5154H21.9691Z" fill="#70707D" style="fill:#70707D;fill:color(display-p3 0.4385 0.4385 0.4902);fill-opacity:1;"/>
</svg>
