<svg width="34" height="30" viewBox="0 0 34 30" fill="none" xmlns="http://www.w3.org/2000/svg">
<path d="M13.4623 4.0678C15.0346 1.35593 15.8208 -2.66636e-08 17 0C18.1792 2.66636e-08 18.9654 1.35593 20.5377 4.0678L32.0354 23.8983C33.6077 26.6102 34.3939 27.9661 33.8042 28.9831C33.2146 30 31.6423 30 28.4976 30H5.50237C2.35771 30 0.785386 30 0.195764 28.9831C-0.393858 27.9661 0.392305 26.6102 1.96463 23.8983L13.4623 4.0678Z" fill="#70707D" style="fill:#70707D;fill:color(display-p3 0.4385 0.4385 0.4902);fill-opacity:1;"/>
<path d="M18.2226 9C18.7869 9 19.044 9.24609 18.9939 9.73826L18.0722 19.2913C18.0345 19.7638 17.6772 20 17 20C16.674 20 16.4169 19.9409 16.2288 19.8228C16.0407 19.6949 15.9341 19.5177 15.909 19.2913L15.0061 9.73826C14.956 9.24609 15.213 9 15.7773 9H18.2226Z" fill="#1B1B1E" style="fill:#1B1B1E;fill:color(display-p3 0.1062 0.1062 0.1180);fill-opacity:1;"/>
<rect x="15" y="22" width="4" height="4" rx="1" fill="#1B1B1E" style="fill:#1B1B1E;fill:color(display-p3 0.1062 0.1062 0.1180);fill-opacity:1;"/>
</svg>
