<svg width="22" height="22" viewBox="0 0 22 22" fill="none" xmlns="http://www.w3.org/2000/svg">
<path fill-rule="evenodd" clip-rule="evenodd" d="M22 11C22 11.3738 22 11.5608 21.9196 11.7C21.867 11.7912 21.7912 11.867 21.7 11.9196C21.5608 12 21.3738 12 21 12H1C0.626154 12 0.439231 12 0.3 11.9196C0.208788 11.867 0.133046 11.7912 0.0803848 11.7C0 11.5608 0 11.3738 0 11C0 10.6262 0 10.4392 0.0803848 10.3C0.133046 10.2088 0.208788 10.133 0.3 10.0804C0.439231 10 0.626154 10 1 10H21C21.3738 10 21.5608 10 21.7 10.0804C21.7912 10.133 21.867 10.2088 21.9196 10.3C22 10.4392 22 10.6262 22 11Z" fill="white" style="fill:white;fill-opacity:1;"/>
<path fill-rule="evenodd" clip-rule="evenodd" d="M11 22C10.6262 22 10.4392 22 10.3 21.9196C10.2088 21.867 10.133 21.7912 10.0804 21.7C10 21.5608 10 21.3738 10 21L10 1C10 0.626154 10 0.43923 10.0804 0.3C10.133 0.208788 10.2088 0.133046 10.3 0.0803847C10.4392 -6.82234e-08 10.6262 -6.00527e-08 11 -4.37114e-08C11.3738 -2.737e-08 11.5608 -1.91994e-08 11.7 0.0803847C11.7912 0.133046 11.867 0.208788 11.9196 0.3C12 0.439231 12 0.626154 12 1L12 21C12 21.3738 12 21.5608 11.9196 21.7C11.867 21.7912 11.7912 21.867 11.7 21.9196C11.5608 22 11.3738 22 11 22Z" fill="white" style="fill:white;fill-opacity:1;"/>
</svg>
