<svg width="22" height="24" viewBox="0 0 22 24" fill="none" xmlns="http://www.w3.org/2000/svg">
<path fill-rule="evenodd" clip-rule="evenodd" d="M12 23.0002C11.7357 23.2645 11.6035 23.3967 11.4482 23.4383C11.3465 23.4656 11.2393 23.4656 11.1376 23.4383C10.9823 23.3967 10.8501 23.2645 10.5858 23.0002L0.292893 12.7073C0.105357 12.5197 1.00028e-06 12.2654 1.02347e-06 12.0002C1.04665e-06 11.735 0.105357 11.4806 0.292894 11.2931L10.5858 1.00017C10.8501 0.735818 10.9823 0.603642 11.1376 0.562032C11.2393 0.534774 11.3465 0.534774 11.4482 0.562032C11.6035 0.603643 11.7357 0.735818 12 1.00017C12.2644 1.26452 12.3965 1.39669 12.4381 1.55198C12.4654 1.65372 12.4654 1.76083 12.4381 1.86257C12.3965 2.01786 12.2644 2.15003 12 2.41438L4.09706 10.3173C3.80645 10.6079 3.66114 10.7532 3.71228 10.8767C3.76342 11.0002 3.96892 11.0002 4.3799 11.0002L21 11.0002C21.3738 11.0002 21.5608 11.0002 21.7 11.0806C21.7912 11.1332 21.867 11.209 21.9196 11.3002C22 11.4394 22 11.6263 22 12.0002C22 12.374 22 12.5609 21.9196 12.7002C21.867 12.7914 21.7912 12.8671 21.7 12.9198C21.5608 13.0002 21.3738 13.0002 21 13.0002L4.3799 13.0002C3.96891 13.0002 3.76342 13.0002 3.71228 13.1236C3.66114 13.2471 3.80645 13.3924 4.09706 13.683L12 21.586C12.2644 21.8503 12.3965 21.9825 12.4381 22.1378C12.4654 22.2395 12.4654 22.3466 12.4381 22.4484C12.3965 22.6036 12.2644 22.7358 12 23.0002Z" fill="#000" style="fill:#000;fill:000;fill-opacity:1;"/>
</svg>
